<svg width="42" height="42" viewBox="0 0 42 42" fill="none" xmlns="http://www.w3.org/2000/svg">
<rect width="42" height="42" rx="6" fill="#FFFEDE"/>
<g clip-path="url(#clip0_34_90)">
<path d="M25.4774 20.4275C25.306 20.2537 25.0726 20.1551 24.8285 20.1533C24.5844 20.1516 24.3496 20.2469 24.1757 20.4183C24.0019 20.5897 23.9033 20.8232 23.9016 21.0673C23.8999 21.3114 23.9952 21.5462 24.1666 21.72L27.5766 25.1667H11.1774C10.9343 25.1667 10.7011 25.2633 10.5292 25.4352C10.3573 25.6071 10.2607 25.8402 10.2607 26.0833C10.2607 26.3265 10.3573 26.5596 10.5292 26.7315C10.7011 26.9034 10.9343 27 11.1774 27H27.5766L24.1666 30.3917C24.0817 30.4771 24.0145 30.5785 23.9688 30.6899C23.9231 30.8014 23.8998 30.9207 23.9002 31.0412C23.9007 31.1616 23.9248 31.2808 23.9713 31.3919C24.0178 31.503 24.0857 31.6039 24.1712 31.6888C24.2566 31.7736 24.358 31.8408 24.4694 31.8865C24.5809 31.9322 24.7002 31.9555 24.8206 31.9551C24.9411 31.9547 25.0603 31.9305 25.1714 31.884C25.2825 31.8376 25.3834 31.7696 25.4682 31.6842L31.0691 26.0833L25.4774 20.4275Z" fill="#525252"/>
<path d="M16.1364 21.9126C16.3185 21.9137 16.4968 21.8605 16.6485 21.7598C16.8002 21.6592 16.9185 21.5156 16.9884 21.3475C17.0582 21.1793 17.0763 20.9942 17.0405 20.8156C17.0047 20.6371 16.9165 20.4733 16.7873 20.3451L13.3864 16.9168H29.7764C30.0195 16.9168 30.2527 16.8202 30.4246 16.6483C30.5965 16.4764 30.6931 16.2432 30.6931 16.0001C30.6931 15.757 30.5965 15.5238 30.4246 15.3519C30.2527 15.18 30.0195 15.0834 29.7764 15.0834H13.3864L16.7873 11.6643C16.8721 11.5788 16.9393 11.4774 16.985 11.366C17.0307 11.2546 17.054 11.1352 17.0536 11.0148C17.0532 10.8943 17.029 10.7751 16.9826 10.664C16.9361 10.5529 16.8681 10.452 16.7827 10.3672C16.6972 10.2823 16.5959 10.2151 16.4844 10.1694C16.373 10.1237 16.2536 10.1004 16.1332 10.1008C15.8899 10.1017 15.657 10.1992 15.4856 10.3718L9.88477 16.0001L15.4856 21.6284C15.5697 21.7167 15.6706 21.7873 15.7824 21.8361C15.8941 21.8849 16.0145 21.9109 16.1364 21.9126Z" fill="#525252"/>
</g>
<defs>
<clipPath id="clip0_34_90">
<rect width="33" height="33" fill="white" transform="translate(4 5)"/>
</clipPath>
</defs>
</svg>
